HIERARCHY
ROOT Pelvis
{
	OFFSET 0.000000 0.000000 0.000000
	CHANNELS 6 Xposition Yposition Zposition Xrotation Yrotation Zrotation
	JOINT LeftUpLeg_virtual
	{
		OFFSET 0.000000 0.000000 0.000000
		CHANNELS 3 Xrotation Yrotation Zrotation
		JOINT LeftUpLeg
		{
			OFFSET 18.735201 -5.666702 -4.541200
			CHANNELS 3 Xrotation Yrotation Zrotation
			JOINT LeftLeg
			{
				OFFSET -0.021200 -31.938179 0.493100
				CHANNELS 3 Xrotation Yrotation Zrotation
				JOINT LeftFoot
				{
					OFFSET 0.021200 -31.938179 -4.336299
					CHANNELS 3 Xrotation Yrotation Zrotation
					JOINT LeftToeBase
					{
						OFFSET 0.943001 -26.722000 15.023500
						CHANNELS 3 Xrotation Yrotation Zrotation
						End Site
						{
							OFFSET 0 0 0
						}
					}
				}
			}
		}
	}
	JOINT RightUpLeg_virtual
	{
		OFFSET 0.000000 0.000000 0.000000
		CHANNELS 3 Xrotation Yrotation Zrotation
		JOINT RightUpLeg
		{
			OFFSET -18.735201 -5.666702 -4.541200
			CHANNELS 3 Xrotation Yrotation Zrotation
			JOINT RightLeg
			{
				OFFSET 0.018946 -31.938133 0.493100
				CHANNELS 3 Xrotation Yrotation Zrotation
				JOINT RightFoot
				{
					OFFSET -0.018946 -31.938126 -4.336299
					CHANNELS 3 Xrotation Yrotation Zrotation
					JOINT RightToeBase
					{
						OFFSET -0.943001 -26.722004 15.023500
						CHANNELS 3 Xrotation Yrotation Zrotation
						End Site
						{
							OFFSET 0 0 0
						}
					}
				}
			}
		}
	}
	JOINT Hips_virtual
	{
		OFFSET 0.000000 0.000000 0.000000
		CHANNELS 3 Xrotation Yrotation Zrotation
		JOINT Hips
		{
			OFFSET -0.000000 -0.000000 -0.000000
			CHANNELS 3 Xrotation Yrotation Zrotation
			JOINT Spine
			{
				OFFSET 0.000000 10.199997 -0.299500
				CHANNELS 3 Xrotation Yrotation Zrotation
				JOINT Spine1
				{
					OFFSET 0.000000 11.900002 -1.516600
					CHANNELS 3 Xrotation Yrotation Zrotation
					JOINT Spine2
					{
						OFFSET 0.000000 13.600006 -2.842500
						CHANNELS 3 Xrotation Yrotation Zrotation
						JOINT Neck_virtual
						{
							OFFSET 0.000000 0.000000 0.000000
							CHANNELS 3 Xrotation Yrotation Zrotation
							JOINT Neck
							{
								OFFSET 0.000000 9.624100 -2.890100
								CHANNELS 3 Xrotation Yrotation Zrotation
								JOINT Head
								{
									OFFSET 0.000000 14.068802 -1.351900
									CHANNELS 3 Xrotation Yrotation Zrotation
									End Site
									{
										OFFSET 0 0 0
									}
								}
							}
						}
						JOINT LeftShoulder_virtual
						{
							OFFSET 0.000000 0.000000 0.000000
							CHANNELS 3 Xrotation Yrotation Zrotation
							JOINT LeftShoulder
							{
								OFFSET 15.263000 10.923401 -0.547700
								CHANNELS 3 Xrotation Yrotation Zrotation
								JOINT LeftArm
								{
									OFFSET 25.438599 -2.830597 -13.032500
									CHANNELS 3 Xrotation Yrotation Zrotation
									JOINT LeftForeArm
									{
										OFFSET 29.960503 0.000000 0.000000
										CHANNELS 3 Xrotation Yrotation Zrotation
										JOINT LeftHand
										{
											OFFSET 27.849251 0.000000 0.000000
											CHANNELS 3 Xrotation Yrotation Zrotation
											End Site
											{
												OFFSET 0 0 0
											}
										}
									}
								}
							}
						}
						JOINT RightShoulder_virtual
						{
							OFFSET 0.000000 0.000000 0.000000
							CHANNELS 3 Xrotation Yrotation Zrotation
							JOINT RightShoulder
							{
								OFFSET -15.263000 10.923401 -0.547700
								CHANNELS 3 Xrotation Yrotation Zrotation
								JOINT RightArm
								{
									OFFSET -25.438599 -2.830597 -13.032500
									CHANNELS 3 Xrotation Yrotation Zrotation
									JOINT RightForeArm
									{
										OFFSET -29.960503 0.000000 0.000000
										CHANNELS 3 Xrotation Yrotation Zrotation
										JOINT RightHand
										{
											OFFSET -27.849251 0.000000 0.000000
											CHANNELS 3 Xrotation Yrotation Zrotation
											End Site
											{
												OFFSET 0 0 0
											}
										}
									}
								}
							}
						}
					}
				}
			}
		}
	}
}
MOTION
Frames: 12
Frame Time: 0.03333333
-0.167640 91.939804 1.925892 0.000000 0.000000 0.000000 10.340058 -10.271612 -0.775036 -27.178246 9.419658 14.364870 36.012179 1.535451 -1.453154 -12.632370 2.258951 -6.337030 0.000000 0.000000 0.000000 6.446589 8.854935 3.009902 -20.607019 -3.283735 -10.368643 33.096945 0.395532 -2.671667 -16.147868 -2.156539 7.076540 0.000000 0.000000 0.000000 0.079665 -1.310759 0.271299 0.806259 5.001097 -2.255579 3.192018 0.259546 0.588509 0.221540 0.222347 0.111707 0.000000 0.000000 0.000000 0.529945 0.252723 0.203162 -1.620448 -0.192214 0.090286 0.000000 0.000000 0.000000 1.310614 -0.286603 -0.784685 -0.440268 -9.092001 -9.221337 6.455789 -5.853958 -57.806036 5.229757 -36.231107 -4.944982 0.000000 0.000000 0.000000 1.916464 -0.127266 1.070543 -0.071889 6.584215 10.354913 6.302637 9.145302 51.939091 6.048432 40.783001 2.766530 0.000000 0.000000 0.000000 
-0.424928 92.046455 1.156059 0.000000 0.000000 0.000000 10.690580 -11.424120 -0.749193 -26.694457 9.235738 14.166547 34.913174 1.675151 -1.590571 -13.619677 2.501580 -6.512358 0.000000 0.000000 0.000000 6.148217 8.631740 3.223314 -21.070073 -3.370847 -10.196182 32.962305 0.210696 -3.089070 -16.511897 -2.141505 6.234302 0.000000 0.000000 0.000000 -0.962953 -2.229935 -0.434271 3.076342 5.352129 -2.516955 3.320891 -0.175684 0.410558 0.318396 0.254076 0.381932 0.000000 0.000000 0.000000 0.789307 0.308077 0.016456 -1.464274 -0.130632 0.022776 0.000000 0.000000 0.000000 0.837537 -0.485985 -0.724424 0.092039 -9.298291 -9.735788 8.143489 -4.925210 -58.381882 6.251027 -34.375611 -4.813704 0.000000 0.000000 0.000000 1.787599 0.116119 1.034936 0.025425 7.567971 10.911184 6.099490 11.035274 51.968300 6.062653 43.662886 2.642433 0.000000 0.000000 0.000000 
-0.224543 91.731529 2.422512 0.000000 0.000000 0.000000 11.156158 -10.506490 -1.069470 -25.836608 9.645283 13.794239 33.666843 2.069200 -1.751665 -14.493590 3.030500 -6.568898 0.000000 0.000000 0.000000 5.932451 9.075499 2.898730 -21.278973 -3.113865 -10.495118 32.685631 -0.042547 -3.354120 -16.650966 -2.237094 5.553430 0.000000 0.000000 0.000000 0.212341 -1.684761 0.415308 1.469749 7.166976 -2.167613 4.059891 -0.579243 -0.121355 -0.255952 0.050226 0.610417 0.000000 0.000000 0.000000 0.844447 0.149360 0.065945 -1.455100 -0.252767 0.007618 0.000000 0.000000 0.000000 0.574182 -0.309416 -0.580442 0.076159 -10.608012 -10.023125 9.321243 -4.151778 -57.964359 7.151065 -31.692242 -4.340288 0.000000 0.000000 0.000000 1.597746 0.186520 1.007541 0.302084 7.046923 11.028869 5.247421 9.062227 53.274844 5.079104 40.054053 3.306064 0.000000 0.000000 0.000000 
-0.188471 92.302635 2.071325 0.000000 0.000000 0.000000 11.125133 -11.677777 -0.816106 -25.916407 9.290422 13.932479 33.580946 1.858633 -1.800042 -14.746016 2.849853 -6.796963 0.000000 0.000000 0.000000 6.211356 10.566392 3.468581 -20.611238 -2.874048 -9.614078 33.318790 -0.333799 -3.474154 -16.211575 -2.421273 5.166437 0.000000 0.000000 0.000000 -0.410861 -1.179073 -0.065933 3.739577 6.392674 -1.747164 3.351446 -1.163886 0.391751 0.045173 0.200054 0.325291 0.000000 0.000000 0.000000 0.792711 0.057198 0.190021 -1.454735 -0.301320 0.033606 0.000000 0.000000 0.000000 1.195731 -0.572341 -0.509273 0.352395 -10.069686 -9.216968 9.084754 -4.719838 -58.716964 6.884548 -32.785010 -4.704126 0.000000 0.000000 0.000000 1.817801 0.259381 0.971892 0.252388 7.077465 11.913013 5.491341 8.973182 53.614280 5.463073 41.251119 3.225560 0.000000 0.000000 0.000000 
0.482899 92.169434 1.168457 0.000000 0.000000 0.000000 11.502382 -13.346886 -0.646255 -25.219207 8.905746 13.717227 32.816802 2.287379 -1.665388 -15.317258 3.224437 -6.351818 0.000000 0.000000 0.000000 6.573258 11.994697 3.422915 -19.967713 -2.547506 -9.415625 32.717467 -0.017069 -3.281516 -16.875528 -2.271582 5.684202 0.000000 0.000000 0.000000 1.698456 -0.407011 -0.140348 4.486173 5.353164 -1.378601 4.457879 -0.709445 -0.249137 -0.211469 0.238417 0.453540 0.000000 0.000000 0.000000 1.018587 0.244056 0.182152 -1.517143 -0.161706 0.010218 0.000000 0.000000 0.000000 1.404622 -0.529229 -0.355538 0.459104 -9.748426 -9.490813 10.467048 -5.105867 -57.337526 7.435201 -32.377836 -4.301406 0.000000 0.000000 0.000000 1.404295 0.350418 1.161196 0.091553 7.962016 11.851528 4.497049 8.693961 53.934353 4.832275 42.388342 3.623514 0.000000 0.000000 0.000000 
0.643523 92.232101 1.708361 0.000000 0.000000 0.000000 11.513739 -13.072631 -1.032318 -25.162272 9.092257 13.353725 33.046149 2.498602 -1.731111 -15.068217 3.458137 -6.340322 0.000000 0.000000 0.000000 7.282656 13.033236 3.228428 -19.056209 -2.334259 -9.471046 32.143499 0.058512 -3.274572 -17.413919 -2.249549 5.723576 0.000000 0.000000 0.000000 -0.785035 -2.803861 0.281172 2.170863 8.456574 -0.646089 3.683887 -1.400950 -0.652459 0.381578 0.402446 0.225536 0.000000 0.000000 0.000000 1.117549 0.184900 0.107502 -1.167521 -0.269848 -0.047537 0.000000 0.000000 0.000000 0.897785 -0.586103 -0.587895 0.284910 -10.072568 -9.821464 9.168343 -3.961447 -58.616772 7.082129 -32.938393 -4.760472 0.000000 0.000000 0.000000 1.638053 0.280876 1.108520 0.549801 6.888434 11.648013 4.967063 8.450746 55.296378 5.404331 40.144976 4.038173 0.000000 0.000000 0.000000 
0.660249 91.824593 1.500755 0.000000 0.000000 0.000000 11.990621 -12.685841 -0.833571 -24.714000 9.240951 13.631675 33.593083 2.791172 -1.814909 -14.685656 3.770285 -6.309840 0.000000 0.000000 0.000000 7.039186 13.389447 3.290820 -19.350580 -2.188952 -9.355798 32.025463 0.151592 -3.141318 -17.523672 -2.240238 5.970297 0.000000 0.000000 0.000000 -0.150050 -1.629564 0.338053 1.866645 8.549272 -0.767493 3.252261 -0.955861 -0.726634 0.547148 -0.148080 0.157680 0.000000 0.000000 0.000000 1.575536 0.118859 0.091552 -1.129064 -0.346012 -0.138176 0.000000 0.000000 0.000000 0.980738 -0.663876 -0.573522 0.230147 -11.765558 -9.878135 10.026531 -5.289532 -58.696037 7.019175 -34.602729 -5.201646 0.000000 0.000000 0.000000 1.581814 0.268231 1.086825 0.531374 5.702069 11.929509 4.476001 7.289957 56.084657 4.700172 38.500765 4.717044 0.000000 0.000000 0.000000 
0.763999 92.260010 0.414825 0.000000 0.000000 0.000000 11.806072 -12.670470 -0.790149 -25.088832 9.183752 13.762723 33.898758 2.825862 -1.946260 -14.569482 3.886734 -6.503721 0.000000 0.000000 0.000000 6.767207 12.865413 2.928960 -19.825661 -2.243878 -9.826774 32.185982 0.131333 -3.167203 -17.367464 -2.190441 5.879180 0.000000 0.000000 0.000000 0.247988 -3.044587 0.134124 3.638385 9.989583 -1.576536 3.987521 -0.555879 -0.195454 0.164048 0.139007 0.111753 0.000000 0.000000 0.000000 1.759087 0.339080 0.219687 -1.091761 -0.335062 0.009094 0.000000 0.000000 0.000000 1.184694 -0.705579 -0.467846 0.224821 -11.531215 -9.385843 9.764133 -3.360568 -58.946452 6.303235 -34.590854 -5.174807 0.000000 0.000000 0.000000 2.180977 0.530298 0.963449 0.507538 6.145782 12.254456 5.839761 8.221798 56.072718 5.309585 39.731989 4.591694 0.000000 0.000000 0.000000 
0.871574 92.213486 0.806335 0.000000 0.000000 0.000000 11.525689 -12.991169 -0.600425 -25.327291 8.957923 13.904032 34.191346 3.066769 -1.831740 -14.340435 4.066705 -6.189624 0.000000 0.000000 0.000000 7.011450 13.493919 2.902080 -19.436485 -2.109296 -9.747601 32.359394 0.470401 -3.294082 -17.234200 -1.768309 5.882536 0.000000 0.000000 0.000000 1.036671 -1.776812 0.608224 3.074726 10.344438 -1.591679 4.362443 -0.729331 -0.396861 0.426865 0.129991 0.281128 0.000000 0.000000 0.000000 1.888110 0.274678 0.181000 -1.074475 -0.414811 -0.067432 0.000000 0.000000 0.000000 1.120693 -0.674907 -0.553557 0.213315 -11.782737 -9.623474 8.692631 -2.537578 -57.549548 5.882010 -33.600972 -5.010894 0.000000 0.000000 0.000000 2.122408 0.402360 1.093970 0.781813 5.961580 12.394112 6.201188 8.398670 56.836477 5.329652 38.246693 5.017276 0.000000 0.000000 0.000000 
1.101461 92.166489 0.293346 0.000000 0.000000 0.000000 11.308320 -12.763138 -0.712908 -25.546777 8.977140 13.823212 33.615094 3.204287 -1.828662 -14.689502 4.225462 -6.123663 0.000000 0.000000 0.000000 7.319121 14.046025 2.764244 -18.916197 -1.975927 -9.743319 32.998809 0.530545 -3.277008 -16.658676 -1.664698 5.947718 0.000000 0.000000 0.000000 1.320220 -1.359014 0.926721 3.848261 9.803049 -1.402999 4.790152 -0.726595 -0.415343 0.597949 0.095310 0.287002 0.000000 0.000000 0.000000 2.238221 0.201492 0.320613 -0.957524 -0.479624 -0.065719 0.000000 0.000000 0.000000 1.378802 -0.629364 -0.502943 0.387770 -11.294675 -10.192006 8.906463 -1.554751 -56.793296 5.428928 -33.573388 -4.962522 0.000000 0.000000 0.000000 2.600033 0.394092 1.208758 1.012800 5.406314 12.238996 5.783203 7.877363 57.740029 5.083873 38.493242 5.331366 0.000000 0.000000 0.000000 
1.354285 92.095741 0.705347 0.000000 0.000000 0.000000 11.531659 -13.022772 -0.845989 -25.213514 9.004461 13.587809 33.518009 3.395067 -1.844108 -14.783613 4.440570 -6.042416 0.000000 0.000000 0.000000 7.764440 14.214617 2.381459 -18.372024 -1.918168 -10.100574 33.137670 0.545341 -3.321770 -16.545495 -1.605306 5.876704 0.000000 0.000000 0.000000 1.262811 -0.402170 0.838405 3.993777 8.846508 -1.264884 4.969935 -0.659603 -0.545094 0.523812 0.130276 0.389839 0.000000 0.000000 0.000000 2.299411 0.223498 0.235502 -0.920941 -0.449635 -0.083411 0.000000 0.000000 0.000000 1.455051 -0.642975 -0.510606 0.371671 -11.089364 -10.562652 7.877691 -1.255888 -57.170077 5.301116 -34.325406 -4.904224 0.000000 0.000000 0.000000 2.464882 0.434429 1.281976 1.098509 5.315844 13.078015 5.686898 7.796350 57.698276 4.726427 38.849580 5.371552 0.000000 0.000000 0.000000 
1.282687 92.031288 0.648596 0.000000 0.000000 0.000000 12.032514 -14.072569 -0.801878 -24.701294 8.885529 13.444390 34.190971 3.464408 -1.932974 -14.412372 4.525332 -6.120781 0.000000 0.000000 0.000000 7.642260 14.745885 2.269745 -18.473761 -1.724063 -10.141560 32.899645 0.623310 -3.274283 -16.707073 -1.563271 5.987091 0.000000 0.000000 0.000000 1.119829 -1.086528 1.032199 4.287951 10.065108 -1.433807 5.412834 -0.730298 -0.473606 0.640426 0.017890 0.383502 0.000000 0.000000 0.000000 2.611039 0.295413 0.291039 -0.919440 -0.407270 -0.045457 0.000000 0.000000 0.000000 1.766782 -0.515719 -0.526560 0.349290 -10.840065 -11.081016 8.204343 -0.798001 -57.428606 4.620678 -33.942161 -5.153631 0.000000 0.000000 0.000000 2.971313 0.402708 1.235915 1.291534 4.972537 12.906536 5.674996 7.766874 57.753628 4.620991 39.440415 5.344090 0.000000 0.000000 0.000000 
